<?xml version="1.0" encoding="UTF-8" standalone="no"?>
<!-- Created with Inkscape (http://www.inkscape.org/) -->

<svg
   xmlns:dc="http://purl.org/dc/elements/1.1/"
   xmlns:cc="http://creativecommons.org/ns#"
   xmlns:rdf="http://www.w3.org/1999/02/22-rdf-syntax-ns#"
   xmlns:svg="http://www.w3.org/2000/svg"
   xmlns="http://www.w3.org/2000/svg"
   xmlns:sodipodi="http://sodipodi.sourceforge.net/DTD/sodipodi-0.dtd"
   xmlns:inkscape="http://www.inkscape.org/namespaces/inkscape"
   width="100mm"
   height="100mm"
   viewBox="0 0 100 100.00001"
   version="1.1"
   id="svg8"
   inkscape:version="0.92.2 (5c3e80d, 2017-08-06)"
   sodipodi:docname="sun.svg">
  <defs
     id="defs2" />
  <sodipodi:namedview
     id="base"
     pagecolor="#68fbff"
     bordercolor="#666666"
     borderopacity="1.0"
     inkscape:pageopacity="0"
     inkscape:pageshadow="2"
     inkscape:zoom="1.4142136"
     inkscape:cx="187.91237"
     inkscape:cy="140.21902"
     inkscape:document-units="mm"
     inkscape:current-layer="layer1"
     showgrid="false"
     units="mm"
     inkscape:window-width="1280"
     inkscape:window-height="972"
     inkscape:window-x="-8"
     inkscape:window-y="-8"
     inkscape:window-maximized="1"
     inkscape:snap-bbox="true"
     showguides="true"
     inkscape:guide-bbox="true"
     inkscape:snap-bbox-midpoints="true"
     inkscape:object-paths="true"
     inkscape:snap-smooth-nodes="true"
     inkscape:object-nodes="false"
     inkscape:snap-intersection-paths="true"
     inkscape:snap-global="true">
    <sodipodi:guide
       position="50.000002,50.000002"
       orientation="1,0"
       id="guide815"
       inkscape:locked="false"
       inkscape:label=""
       inkscape:color="rgb(0,0,255)" />
    <sodipodi:guide
       position="50.000002,50.000002"
       orientation="0,1"
       id="guide819"
       inkscape:locked="false"
       inkscape:label=""
       inkscape:color="rgb(0,0,255)" />
    <sodipodi:guide
       position="49.999999,80.521592"
       orientation="0,1"
       id="guide1392"
       inkscape:locked="false" />
    <sodipodi:guide
       position="49.999999,19.478431"
       orientation="0,1"
       id="guide1394"
       inkscape:locked="false" />
  </sodipodi:namedview>
  <metadata
     id="metadata5">
    <rdf:RDF>
      <cc:Work
         rdf:about="">
        <dc:format>image/svg+xml</dc:format>
        <dc:type
           rdf:resource="http://purl.org/dc/dcmitype/StillImage" />
        <dc:title></dc:title>
      </cc:Work>
    </rdf:RDF>
  </metadata>
  <g
     inkscape:label="Layer 1"
     inkscape:groupmode="layer"
     id="layer1"
     transform="translate(0,-196.99996)">
    <path
       style="color:#000000;clip-rule:nonzero;display:inline;overflow:visible;visibility:visible;opacity:1;isolation:auto;mix-blend-mode:normal;color-interpolation:sRGB;color-interpolation-filters:linearRGB;solid-color:#000000;solid-opacity:1;fill:#ffffff;fill-opacity:1;fill-rule:nonzero;stroke:#272727;stroke-width:1;stroke-linecap:square;stroke-linejoin:miter;stroke-miterlimit:4;stroke-dasharray:none;stroke-dashoffset:0;stroke-opacity:0.21653543;color-rendering:auto;image-rendering:auto;shape-rendering:auto;text-rendering:auto;enable-background:accumulate"
       d="m 50.000048,215.68691 -4.168265,7.1291 a 24.540439,24.540439 0 0 0 -4.292916,1.16796 l -7.195575,-4.1022 -0.04487,8.28792 a 24.540439,24.540439 0 0 0 -3.149883,3.12869 l -8.266728,0.0449 4.110096,7.20929 a 24.540439,24.540439 0 0 0 -1.147603,4.263 l -7.157351,4.18447 7.129097,4.16826 a 24.540439,24.540439 0 0 0 1.167962,4.29292 l -4.102201,7.19558 8.287919,0.0449 a 24.540439,24.540439 0 0 0 3.128692,3.14988 l 0.04487,8.26632 7.209703,-4.10969 a 24.540439,24.540439 0 0 0 4.262584,1.14761 l 4.184469,7.15735 4.168266,-7.12951 a 24.540439,24.540439 0 0 0 4.292916,-1.16755 l 7.195577,4.10179 0.04487,-8.28792 a 24.540439,24.540439 0 0 0 3.149883,-3.12828 l 8.266312,-0.0449 -4.109681,-7.20971 a 24.540439,24.540439 0 0 0 1.147188,-4.26258 l 7.157766,-4.18447 -7.129513,-4.16827 a 24.540439,24.540439 0 0 0 -1.167546,-4.29291 l 4.101786,-7.19558 -8.287503,-0.0449 a 24.540439,24.540439 0 0 0 -3.128692,-3.14988 l -0.04487,-8.26673 -7.209288,4.11009 a 24.540439,24.540439 0 0 0 -4.263001,-1.1476 z"
       id="path821"
       inkscape:connector-curvature="0" />
  </g>
</svg>
